<svg width="79" height="79" viewBox="0 0 79 79" fill="none" xmlns="http://www.w3.org/2000/svg">
<g clip-path="url(#clip0_799_262)">
<rect width="79" height="79" rx="22" fill="black" fill-opacity="0.76"/>
<mask id="path-2-outside-1_799_262" maskUnits="userSpaceOnUse" x="26" y="14" width="25" height="47" fill="black">
<rect fill="white" x="26" y="14" width="25" height="47"/>
<path d="M29.232 59C28.6987 59 28.432 58.7333 28.432 58.2V51.288C28.432 51.032 28.4427 50.8187 28.464 50.648C28.5067 50.4773 28.6347 50.3387 28.848 50.232L36.752 46.36V41.88L28.976 37.208C28.6133 37.016 28.432 36.696 28.432 36.248V23.736C28.432 23.3947 28.4533 23.1493 28.496 23C28.5387 22.8293 28.6987 22.648 28.976 22.456L37.392 16.76C37.584 16.632 37.776 16.536 37.968 16.472C38.16 16.3867 38.3947 16.344 38.672 16.344H48.08C48.6133 16.344 48.88 16.6107 48.88 17.144V23.768C48.88 24.2373 48.72 24.5573 48.4 24.728L40.016 28.248V32.92L48.4 37.72C48.72 37.8693 48.88 38.2107 48.88 38.744V52.664C48.88 52.8347 48.848 53.016 48.784 53.208C48.7413 53.4 48.6347 53.5387 48.464 53.624L38.416 58.616C38.288 58.68 38.128 58.7653 37.936 58.872C37.7653 58.9573 37.5947 59 37.424 59H29.232Z"/>
</mask>
<path d="M29.232 59C28.6987 59 28.432 58.7333 28.432 58.2V51.288C28.432 51.032 28.4427 50.8187 28.464 50.648C28.5067 50.4773 28.6347 50.3387 28.848 50.232L36.752 46.36V41.88L28.976 37.208C28.6133 37.016 28.432 36.696 28.432 36.248V23.736C28.432 23.3947 28.4533 23.1493 28.496 23C28.5387 22.8293 28.6987 22.648 28.976 22.456L37.392 16.76C37.584 16.632 37.776 16.536 37.968 16.472C38.16 16.3867 38.3947 16.344 38.672 16.344H48.08C48.6133 16.344 48.88 16.6107 48.88 17.144V23.768C48.88 24.2373 48.72 24.5573 48.4 24.728L40.016 28.248V32.92L48.4 37.72C48.72 37.8693 48.88 38.2107 48.88 38.744V52.664C48.88 52.8347 48.848 53.016 48.784 53.208C48.7413 53.4 48.6347 53.5387 48.464 53.624L38.416 58.616C38.288 58.68 38.128 58.7653 37.936 58.872C37.7653 58.9573 37.5947 59 37.424 59H29.232Z" fill="white"/>
<path d="M28.464 50.648L26.5237 50.1629L26.4944 50.2801L26.4794 50.3999L28.464 50.648ZM28.848 50.232L27.9681 48.4359L27.9608 48.4395L27.9536 48.4431L28.848 50.232ZM36.752 46.36L37.6319 48.1561L38.752 47.6073V46.36H36.752ZM36.752 41.88H38.752V40.7484L37.782 40.1656L36.752 41.88ZM28.976 37.208L30.006 35.4936L29.9596 35.4658L29.9118 35.4404L28.976 37.208ZM28.496 23L30.419 23.5494L30.4282 23.5174L30.4363 23.4851L28.496 23ZM28.976 22.456L27.855 20.7997L27.8463 20.8056L27.8376 20.8116L28.976 22.456ZM37.392 16.76L36.2826 15.0959L36.271 15.1037L37.392 16.76ZM37.968 16.472L38.6005 18.3694L38.692 18.3388L38.7803 18.2996L37.968 16.472ZM48.4 24.728L49.1742 26.5721L49.2595 26.5362L49.3412 26.4927L48.4 24.728ZM40.016 28.248L39.2418 26.4039L38.016 26.9186V28.248H40.016ZM40.016 32.92H38.016V34.0795L39.0223 34.6557L40.016 32.92ZM48.4 37.72L47.4063 39.4557L47.4787 39.4971L47.5542 39.5324L48.4 37.72ZM48.784 53.208L46.8866 52.5755L46.854 52.6734L46.8316 52.7741L48.784 53.208ZM48.464 53.624L49.3539 55.4151L49.3584 55.4129L48.464 53.624ZM38.416 58.616L37.5261 56.8249L37.5216 56.8271L38.416 58.616ZM37.936 58.872L38.8304 60.6609L38.8693 60.6414L38.9073 60.6203L37.936 58.872ZM29.232 57C29.2736 57 29.6722 57.0118 30.0462 57.3858C30.4202 57.7598 30.432 58.1584 30.432 58.2H26.432C26.432 58.775 26.5771 59.5735 27.2178 60.2142C27.8585 60.8549 28.657 61 29.232 61V57ZM30.432 58.2V51.288H26.432V58.2H30.432ZM30.432 51.288C30.432 51.0791 30.4412 50.9552 30.4486 50.8961L26.4794 50.3999C26.4442 50.6821 26.432 50.9849 26.432 51.288H30.432ZM30.4043 51.1331C30.3384 51.3966 30.2081 51.6139 30.0616 51.7726C29.9247 51.9209 29.7974 51.9934 29.7424 52.0209L27.9536 48.4431C27.4137 48.7131 26.7536 49.2434 26.5237 50.1629L30.4043 51.1331ZM29.7279 52.0281L37.6319 48.1561L35.8721 44.5639L27.9681 48.4359L29.7279 52.0281ZM38.752 46.36V41.88H34.752V46.36H38.752ZM37.782 40.1656L30.006 35.4936L27.946 38.9224L35.722 43.5944L37.782 40.1656ZM29.9118 35.4404C30.0273 35.5016 30.1894 35.6285 30.308 35.838C30.4213 36.0378 30.432 36.2013 30.432 36.248H26.432C26.432 36.7427 26.5334 37.2902 26.828 37.81C27.128 38.3395 27.562 38.7224 28.0402 38.9756L29.9118 35.4404ZM30.432 36.248V23.736H26.432V36.248H30.432ZM30.432 23.736C30.432 23.6029 30.4363 23.5171 30.4405 23.4693C30.4425 23.4463 30.4437 23.4412 30.4422 23.4501C30.441 23.4575 30.435 23.4936 30.419 23.5494L26.573 22.4506C26.4477 22.8888 26.432 23.3763 26.432 23.736H30.432ZM30.4363 23.4851C30.3564 23.8046 30.2043 23.9951 30.1477 24.0592C30.088 24.1269 30.0607 24.1375 30.1144 24.1004L27.8376 20.8116C27.4798 21.0593 26.7847 21.5992 26.5557 22.5149L30.4363 23.4851ZM30.097 24.1123L38.513 18.4163L36.271 15.1037L27.855 20.7997L30.097 24.1123ZM38.5014 18.4241C38.5658 18.3812 38.5988 18.3699 38.6005 18.3694L37.3355 14.5746C36.9532 14.7021 36.6022 14.8828 36.2826 15.0959L38.5014 18.4241ZM38.7803 18.2996C38.7129 18.3296 38.6643 18.3404 38.6458 18.3437C38.6279 18.347 38.6345 18.344 38.672 18.344V14.344C38.2001 14.344 37.6713 14.4152 37.1557 14.6444L38.7803 18.2996ZM38.672 18.344H48.08V14.344H38.672V18.344ZM48.08 18.344C48.0384 18.344 47.6398 18.3322 47.2658 17.9582C46.8918 17.5842 46.88 17.1856 46.88 17.144H50.88C50.88 16.569 50.7349 15.7705 50.0942 15.1298C49.4535 14.4891 48.655 14.344 48.08 14.344V18.344ZM46.88 17.144V23.768H50.88V17.144H46.88ZM46.88 23.768C46.88 23.7853 46.8759 23.656 46.9711 23.4656C47.0793 23.2492 47.2582 23.0703 47.4588 22.9633L49.3412 26.4927C50.5099 25.8694 50.88 24.7222 50.88 23.768H46.88ZM47.6258 22.8839L39.2418 26.4039L40.7902 30.0921L49.1742 26.5721L47.6258 22.8839ZM38.016 28.248V32.92H42.016V28.248H38.016ZM39.0223 34.6557L47.4063 39.4557L49.3937 35.9843L41.0097 31.1843L39.0223 34.6557ZM47.5542 39.5324C47.4227 39.471 47.2934 39.3822 47.1803 39.2666C47.0686 39.1524 46.9951 39.0349 46.9491 38.9369C46.864 38.7554 46.88 38.6573 46.88 38.744H50.88C50.88 37.8806 50.6005 36.5398 49.2458 35.9076L47.5542 39.5324ZM46.88 38.744V52.664H50.88V38.744H46.88ZM46.88 52.664C46.88 52.584 46.8949 52.5506 46.8866 52.5755L50.6814 53.8405C50.8011 53.4814 50.88 53.0853 50.88 52.664H46.88ZM46.8316 52.7741C46.8658 52.6202 46.9407 52.4264 47.0868 52.2366C47.234 52.0452 47.4095 51.9152 47.5696 51.8351L49.3584 55.4129C50.0867 55.0487 50.5677 54.4008 50.7364 53.6419L46.8316 52.7741ZM47.5741 51.8329L37.5261 56.8249L39.3059 60.4071L49.3539 55.4151L47.5741 51.8329ZM37.5216 56.8271C37.3579 56.909 37.1702 57.0095 36.9647 57.1237L38.9073 60.6203C39.0858 60.5212 39.2181 60.451 39.3104 60.4049L37.5216 56.8271ZM37.0416 57.0831C37.1155 57.0462 37.2491 57 37.424 57V61C37.9402 61 38.4152 60.8685 38.8304 60.6609L37.0416 57.0831ZM37.424 57H29.232V61H37.424V57Z" fill="#EE6F6F" mask="url(#path-2-outside-1_799_262)"/>
</g>
<defs>
<clipPath id="clip0_799_262">
<rect width="79" height="79" rx="22" fill="white"/>
</clipPath>
</defs>
</svg>
